<svg xmlns="http://www.w3.org/2000/svg" width="100%" height="100%" viewBox="0 0 128 128">
  <circle cx="64" cy="64" r="64" fill="#f2f2f2"/>
  <path d="M64 27.214c11.787 0 21.357 9.57 21.357 21.357S75.787 70.928 64 70.928s-21.357-9.57-21.357-21.357 9.57-21.357 21.357-21.357z" fill="#fff"/>
  <path d="M114.428 114.428c-3.818-24.12-19.59-43.104-38.428-48.548v-9.572c0-9.658-7.831-17.489-17.489-17.489s-17.489 7.831-17.489 17.489v9.572c-18.838 5.444-34.61 24.428-38.428 48.548-4.868 30.768 17.298 50.557 41.25 50.557h11.943c2.738 0 5.276-1.5 6.592-3.917 5.105-8.616 14.235-14.178 24.397-14.178s19.292 5.562 24.397 14.178c1.316 2.417 3.854 3.917 6.592 3.917h11.943c23.952 0 46.118-19.789 41.25-50.557z" fill="#6c757d"/>
</svg>
